<svg width="165" height="68" viewBox="0 0 165 68" fill="none" xmlns="http://www.w3.org/2000/svg">
<g clip-path="url(#clip0_1_7)">
<mask id="mask0_1_7" style="mask-type:luminance" maskUnits="userSpaceOnUse" x="0" y="0" width="165" height="68">
<path d="M165 0H0V68H165V0Z" fill="white"/>
</mask>
<g mask="url(#mask0_1_7)">
<path d="M107.979 30.6205V18.8411H112.012C112.012 18.8411 112.012 23.9247 112.012 24.3266C112.012 24.7265 111.923 25.1827 111.923 25.1827H112.098L116.487 18.842H120.344L120.343 30.6205H116.313V25.0863C116.313 24.6903 116.399 24.3141 116.399 24.3141H116.224L111.837 30.6205H107.979Z" fill="#663A2A"/>
<path d="M99.6184 18.5275C103.453 18.5275 106.312 21.1866 106.312 24.7481C106.312 28.2758 103.453 30.9346 99.6184 30.9346C95.8234 30.9346 92.9628 28.2758 92.9628 24.7481C92.9628 21.1863 95.8234 18.5275 99.6184 18.5275ZM99.6193 27.2654C101.084 27.2654 102.06 26.1492 102.06 24.7481C102.06 23.3138 101.084 22.1961 99.6193 22.1961C98.1914 22.1961 97.1786 23.3136 97.1786 24.7481C97.1783 26.1489 98.1914 27.2654 99.6193 27.2654Z" fill="#663A2A"/>
<path d="M19.7289 32.6599C23.4949 32.6599 26.1586 35.3161 26.1586 38.8974C26.1586 42.4311 23.4952 45.0656 19.7289 45.0656C16.0065 45.0656 13.319 42.4311 13.319 38.8974C13.319 35.3161 16.0065 32.6599 19.7289 32.6599ZM19.7289 42.9039C22.1533 42.9039 23.8066 41.1712 23.8066 38.8974C23.8066 36.5771 22.1536 34.8222 19.7289 34.8222C17.3491 34.8222 15.6946 36.5771 15.6946 38.8974C15.6943 41.1712 17.3488 42.9039 19.7289 42.9039Z" fill="#663A2A"/>
<path d="M79.6047 39.6319C79.628 39.3911 79.6423 39.1475 79.6423 38.8974C79.6423 35.3161 77.7542 32.6599 73.7981 32.6599C70.4167 32.6599 67.9724 35.3161 67.9724 38.8974C67.9724 39.1475 67.9882 39.3911 68.0111 39.6319H68.0072C68.2807 42.7046 70.2866 45.0703 74.4862 45.0703C76.5141 45.0703 78.2389 44.4607 79.4825 43.4687L78.5366 41.7755C77.6161 42.453 76.213 43.0846 74.5558 43.0846C71.9318 43.0846 70.6643 41.685 70.4352 39.6319H70.4439H79.6047ZM73.9161 34.6163C76.0784 34.6163 77.2088 35.9957 77.3992 37.8031H70.4702C70.814 35.9358 72.1323 34.6163 73.9161 34.6163Z" fill="#663A2A"/>
<path d="M90.1193 32.9758V37.8025H83.6872V32.9758H81.2963V44.755H83.6872V39.6275H90.1193V44.755H92.5101V32.9758H90.1193Z" fill="#663A2A"/>
<path d="M105.111 32.9758H94.1638V35.0654H98.4407V44.755H100.833V35.0654H105.111V32.9758Z" fill="#663A2A"/>
<path d="M120.343 32.9755H117.952V44.7547H120.343V32.9755Z" fill="#663A2A"/>
<path d="M33.057 38.5575V38.4545C33.057 38.4545 33.2772 38.3833 33.4784 38.1588C33.6778 37.9378 38.0596 32.9755 38.0596 32.9755H35.3753L31.1561 37.8022H30.2024V32.9755H27.8113V44.7547H30.2024V39.6272H31.2871L35.8402 44.7547L38.8182 44.7529C38.8182 44.7529 33.7138 39.1083 33.4942 38.8645C33.2845 38.6305 33.057 38.5575 33.057 38.5575Z" fill="#663A2A"/>
<path d="M111.004 36.5765C109.885 36.5765 109.156 36.7162 109.156 36.7162V32.9758H106.764V44.7576C106.764 44.7576 108.729 44.9457 110.762 44.9457C114.521 44.9457 115.757 42.7001 115.757 40.6346C115.757 38.5382 114.652 36.5765 111.004 36.5765ZM110.575 42.9825C109.833 42.9825 109.156 42.9262 109.156 42.9262V38.6779C109.156 38.6779 109.679 38.5385 110.603 38.5385C112.606 38.5385 113.486 39.2976 113.486 40.7114C113.486 42.0988 112.693 42.9825 110.575 42.9825Z" fill="#663A2A"/>
<path d="M9.37292 32.9758L9.30938 34.4611H9.15597C8.39406 33.3526 6.86993 32.6599 5.67562 32.6599C2.17227 32.6599 0.0871526 35.3161 0.0024284 38.8974C-0.0795725 42.4311 2.03006 45.0656 5.5334 45.0656C7.13983 45.0656 8.1417 44.6194 9.12057 43.4797H9.27428V44.5343C9.27428 46.8137 7.6627 47.7173 5.84325 47.7173C4.16994 47.7173 2.86702 47.0982 2.0691 46.628L1.28812 48.5743C2.0467 48.9569 3.47219 49.7917 5.84295 49.7917C9.20317 49.7917 11.6659 47.8285 11.6659 44.0608V32.9755L9.37292 32.9758ZM5.95944 42.9039C3.54662 42.9039 2.2691 41.1712 2.32206 38.8974C2.37682 36.5771 3.73513 34.8222 6.14644 34.8222C7.47752 34.8222 9.27398 36.0156 9.27398 38.1745V41.4249C8.52628 42.335 7.36557 42.9039 5.95944 42.9039Z" fill="#663A2A"/>
<path d="M48.3018 32.9759V41.5136C47.6005 42.3724 46.5235 42.9043 45.1643 42.9043C42.9672 42.9043 41.9618 41.1716 42.0166 38.8978V32.9727H39.6957V38.8978C39.614 42.4321 41.057 45.066 44.5592 45.066C46.1635 45.066 47.2518 44.5996 48.1481 43.4801H48.3018V44.535C48.3018 46.8141 46.689 47.7177 44.8708 47.7177C43.1966 47.7177 41.8939 47.0989 41.0954 46.6284L40.3142 48.5753C41.0742 48.9573 42.4997 49.7927 44.8708 49.7927C48.2307 49.7927 50.6926 47.8292 50.6926 44.0615V32.9762L48.3018 32.9759Z" fill="#663A2A"/>
<path d="M64.0534 32.9758C64.0534 32.9758 60.0989 38.4275 59.9839 38.5886C59.8683 38.7506 59.8302 38.9057 59.8302 38.9057H59.7427C59.7427 38.9057 59.6946 38.7512 59.5675 38.5886C59.4413 38.427 55.1936 32.9758 55.1936 32.9758H52.9373V44.755H55.3291V37.2428C55.3291 36.7192 55.2181 36.4234 55.2181 36.4234H55.3291L59.7306 42.2207H59.8316L63.9144 36.4234H64.0258C64.0258 36.4234 63.9144 36.7328 63.9144 37.2362V44.755H66.3055V32.9758H64.0534Z" fill="#663A2A"/>
<path d="M88.1288 18.8411C88.1288 18.8411 84.7625 23.132 84.6254 23.2955C84.4608 23.4957 84.4458 23.6028 84.4458 23.6028H84.2717C84.2717 23.6028 84.2388 23.488 84.0799 23.2946C83.843 23.0071 80.3542 18.8411 80.3542 18.8411H77.1746V30.6205H81.0607V25.6746C81.0607 25.1427 80.9735 24.8179 80.9735 24.8179H81.1481L84.2717 28.3349H84.44L87.3354 24.8179H87.5109C87.5109 24.8179 87.4223 25.1364 87.4223 25.6746V30.6205H91.3108V18.8411H88.1288Z" fill="#663A2A"/>
<path d="M140.973 28.4402V16.4884H131.363V28.4342C131.363 32.6433 133.654 36.5317 137.371 38.6343L148.182 44.7544V33.8794L142.176 30.4805C141.431 30.0589 140.973 29.2817 140.973 28.4402Z" fill="#C59368"/>
<path d="M148.182 40.0425L158.992 33.9242C162.709 31.8195 165 27.9314 165 23.722V0H148.182V9.42201H155.389L155.39 23.7294C155.39 24.571 154.931 25.3485 154.187 25.7683L148.182 29.1684V40.0425Z" fill="#E84B37"/>
<path d="M148.182 0L131.363 16.4887H148.182V0Z" fill="#663A2A"/>
<path d="M30.9825 63.0855L31.0442 62.3282H31.0037L30.6463 63.165L28.9273 65.957H28.4498V60.9716H29.183V63.9336L29.1212 64.6595H29.1618L29.4971 63.8434L31.2372 60.9716H31.7147V65.957H30.9825V63.0855Z" fill="#E84B37"/>
<path d="M38.8532 62.9949L38.9258 62.0489H38.8843L38.5782 62.8964L37.6329 64.8095H37.3682L36.3838 62.8964L36.1079 62.0489H36.0573L36.1387 62.9851V65.9569H35.4773V60.9709H36.2101L37.3179 63.1352L37.5421 63.7825H37.5621L37.8056 63.1139L38.8338 60.9709H39.5852V65.9569H38.8532V62.9949Z" fill="#E84B37"/>
<path d="M42.2493 64.1917L42.4634 65.159H42.5137L42.6671 64.1917L43.439 60.9719H44.1825L42.9706 65.4477C42.8762 65.8072 42.782 66.1418 42.6871 66.4557C42.5912 66.768 42.4886 67.038 42.3778 67.2673C42.2656 67.496 42.1397 67.6761 42.0011 67.8054C41.861 67.9353 41.6967 67.9997 41.5079 67.9997C41.3175 67.9997 41.1514 67.97 41.0089 67.9098L41.1314 67.2317C41.2262 67.2649 41.3203 67.2711 41.4165 67.2516C41.5109 67.2317 41.5998 67.1753 41.6843 67.0828C41.7706 66.9899 41.8483 66.8505 41.9188 66.6681C41.9896 66.4859 42.0529 66.2486 42.1067 65.9567L40.4591 60.9716H41.2928L42.2493 64.1917Z" fill="#E84B37"/>
<path d="M47.5079 63.7333H45.7474V65.9576H45.0151V60.9709H45.7474V63.0857H47.5079V60.9709H48.2401V65.9576H47.5079V63.7333Z" fill="#E84B37"/>
<path d="M52.165 63.0855L52.2249 62.3282H52.1843L51.8285 63.165L50.1113 65.957H49.6317V60.9716H50.364V63.9336L50.304 64.6595H50.3443L50.6796 63.8434L52.4189 60.9716H52.8972V65.957H52.165V63.0855Z" fill="#E84B37"/>
<path d="M58.0321 67.2225H57.525L57.4022 65.957H54.3013V60.9719H55.0329V65.308H56.7108V60.9719H57.443V65.308H58.0321V67.2225Z" fill="#E84B37"/>
<path d="M61.5303 63.0855L61.5908 62.3282H61.5503L61.1932 63.165L59.4766 65.957H58.9988V60.9716H59.7308V63.9336L59.6691 64.6595H59.7096L60.0458 63.8434L61.7844 60.9716H62.2631V65.957H61.5303V63.0855Z" fill="#E84B37"/>
<path d="M66.1061 61.6192H64.3977V65.957H63.6666V60.9719H66.839V65.957H66.1061V61.6192Z" fill="#E84B37"/>
<path d="M68.1911 61.2715C68.3878 61.1517 68.6265 61.0588 68.9083 60.9915C69.1897 60.9253 69.4849 60.8927 69.7966 60.8927C70.0834 60.8927 70.3108 60.9339 70.4847 61.0176C70.6575 61.0998 70.7933 61.2113 70.8902 61.3558C70.9891 61.4987 71.0545 61.6622 71.0844 61.8434C71.1147 62.0268 71.1305 62.2187 71.1305 62.4175C71.1305 62.8161 71.1213 63.2056 71.1041 63.585C71.0863 63.9624 71.0775 64.3219 71.0775 64.6604C71.0775 64.914 71.0863 65.1487 71.1041 65.3625C71.1216 65.5806 71.1552 65.7844 71.2022 65.9778H70.6278L70.4508 65.3886H70.4112C70.3095 65.5619 70.1615 65.7108 69.9664 65.8375C69.7711 65.9641 69.5098 66.0261 69.1788 66.0261C68.8163 66.0261 68.5179 65.903 68.2852 65.6524C68.054 65.4032 67.9369 65.06 67.9369 64.6215C67.9369 64.3355 67.9871 64.0962 68.0843 63.9024C68.1811 63.7111 68.3197 63.5536 68.497 63.4343C68.6752 63.3148 68.8874 63.2294 69.134 63.1804C69.3793 63.1306 69.6526 63.106 69.9543 63.106H70.156C70.2242 63.106 70.2947 63.1083 70.3691 63.1146C70.3885 62.909 70.3991 62.7257 70.3991 62.5676C70.3991 62.1884 70.341 61.9235 70.2281 61.7693C70.1143 61.6165 69.9053 61.5406 69.6036 61.5406C69.4151 61.5406 69.2096 61.5685 68.9887 61.6257C68.7663 61.6821 68.5823 61.753 68.434 61.8396L68.1911 61.2715ZM70.3776 63.6835C70.3095 63.6773 70.2423 63.672 70.1772 63.6684C70.1092 63.6654 70.0423 63.6637 69.9745 63.6637C69.8147 63.6637 69.6577 63.677 69.5015 63.7031C69.3478 63.7304 69.2117 63.7761 69.0916 63.8437C68.9709 63.9099 68.8749 63.9986 68.8039 64.1116C68.7345 64.2252 68.7007 64.3676 68.7007 64.5411C68.7007 64.8069 68.7647 65.0122 68.8949 65.159C69.0256 65.305 69.1951 65.378 69.4033 65.378C69.6838 65.378 69.9022 65.3112 70.0559 65.1792C70.2111 65.0457 70.3168 64.8998 70.3779 64.7402L70.3776 63.6835Z" fill="#E84B37"/>
<path d="M74.7197 61.6192H73.6114C73.5908 62.1852 73.5627 62.7316 73.5297 63.2593C73.4958 63.7871 73.4374 64.2549 73.352 64.6598C73.267 65.0653 73.1463 65.3904 72.9911 65.6319C72.8343 65.8758 72.6283 65.9959 72.3708 65.9959C72.2552 65.9959 72.1568 65.9897 72.0754 65.9772C71.9944 65.9633 71.9196 65.9401 71.8516 65.9087L71.9638 65.2884C72.1066 65.3278 72.2346 65.3195 72.3456 65.2629C72.4567 65.2062 72.5541 65.0336 72.6346 64.7432C72.7157 64.4545 72.7817 64.0119 72.8343 63.4145C72.8836 62.8188 72.9185 62.0042 72.94 60.9719H75.4526V65.957H74.7197V61.6192Z" fill="#E84B37"/>
<path d="M77.5871 62.8758C77.7224 62.8497 77.8515 62.831 77.9735 62.8209C78.0961 62.8114 78.2108 62.8061 78.3202 62.8061C78.605 62.8061 78.8456 62.8437 79.042 62.9197C79.2383 62.9974 79.3969 63.1003 79.5201 63.2347C79.6414 63.3682 79.7298 63.5243 79.7848 63.7085C79.8393 63.8909 79.8658 64.0858 79.8658 64.2914C79.8658 64.8959 79.7173 65.335 79.4181 65.6067C79.1197 65.8808 78.6516 66.0158 78.0153 66.0158C77.6149 66.0158 77.2285 65.9968 76.8563 65.957V60.9719H77.5874L77.5871 62.8758ZM77.5871 65.3086C77.7907 65.3474 77.9783 65.3676 78.1475 65.3676C78.7842 65.3676 79.1028 65.038 79.1028 64.3813C79.1028 64.0825 79.0277 63.8473 78.8797 63.6782C78.73 63.5085 78.4922 63.4243 78.1668 63.4243C78.0797 63.4243 77.9838 63.4296 77.8821 63.4397C77.7807 63.4483 77.6837 63.4679 77.5874 63.4937L77.5871 65.3086Z" fill="#E84B37"/>
<path d="M83.3837 63.7333H81.6242V65.9576H80.8922V60.9709H81.6242V63.0857H83.3837V60.9709H84.1169V65.9576H83.3837V63.7333Z" fill="#E84B37"/>
<path d="M86.2408 62.8758C86.3766 62.8497 86.5056 62.831 86.6272 62.8209C86.7503 62.8114 86.865 62.8061 86.9739 62.8061C87.2517 62.8061 87.4847 62.8437 87.6747 62.9197C87.8656 62.9974 88.0154 63.1003 88.1283 63.2347C88.2393 63.3682 88.3186 63.5242 88.3673 63.7085C88.414 63.8909 88.4375 64.0858 88.4375 64.2914C88.4375 64.8959 88.301 65.335 88.0257 65.6067C87.7504 65.8808 87.2955 66.0158 86.6574 66.0158C86.2647 66.0158 85.8819 65.9968 85.5098 65.957V60.9719H86.2408V62.8758ZM86.2408 65.3086C86.4459 65.3474 86.6317 65.3676 86.8018 65.3676C87.1268 65.3676 87.3531 65.2825 87.4831 65.1134C87.6106 64.9443 87.675 64.6998 87.675 64.3812C87.675 64.0816 87.6136 63.8473 87.4883 63.6782C87.3621 63.5085 87.1409 63.4243 86.8226 63.4243C86.7334 63.4243 86.6384 63.4296 86.5367 63.4397C86.4353 63.4483 86.3364 63.4679 86.2411 63.4937L86.2408 65.3086ZM89.0481 60.9716H89.781V65.9567H89.0481V60.9716Z" fill="#E84B37"/>
<path d="M94.2233 65.6179C94.0623 65.763 93.8542 65.8763 93.603 65.957C93.3515 66.0365 93.0871 66.0768 92.8111 66.0768C92.4925 66.0768 92.2157 66.0137 91.982 65.8914C91.7485 65.7683 91.5541 65.5918 91.4026 65.3619C91.251 65.1335 91.1378 64.8603 91.0655 64.5408C90.995 64.2216 90.9604 63.863 90.9604 63.4643C90.9604 62.6135 91.119 61.9654 91.4374 61.5201C91.7572 61.0754 92.2068 60.8512 92.7908 60.8512C92.9794 60.8512 93.1685 60.8752 93.3552 60.9212C93.5422 60.968 93.7098 61.0612 93.8586 61.1997C94.0069 61.3406 94.1267 61.5367 94.2197 61.7889C94.3114 62.0413 94.3561 62.3697 94.3561 62.7749C94.3561 62.8894 94.3507 63.0092 94.3413 63.1389C94.3307 63.2688 94.3195 63.4041 94.3059 63.5423H91.7224C91.7224 63.8289 91.746 64.089 91.7929 64.3207C91.8414 64.553 91.9151 64.7511 92.0172 64.9134C92.1182 65.0769 92.2489 65.2026 92.4096 65.291C92.5679 65.3818 92.7669 65.4278 93.003 65.4278C93.1872 65.4278 93.3681 65.3931 93.5473 65.3269C93.727 65.2608 93.8654 65.1816 93.9598 65.0875L94.2233 65.6179ZM93.655 62.9455C93.6687 62.448 93.5969 62.0813 93.4414 61.8497C93.2847 61.6159 93.0716 61.4996 92.8005 61.4996C92.4891 61.4996 92.2419 61.6159 92.058 61.8497C91.8749 62.0813 91.7675 62.4483 91.7327 62.9455H93.655Z" fill="#E84B37"/>
<path d="M99.156 64.1917L99.3705 65.159H99.4207L99.5723 64.1917L100.346 60.9719H101.088L99.8776 65.4477C99.7832 65.8072 99.6866 66.1418 99.5926 66.4557C99.4982 66.768 99.3956 67.038 99.2839 67.2673C99.1711 67.496 99.0458 67.6761 98.9067 67.8054C98.7668 67.9353 98.6031 67.9997 98.4134 67.9997C98.2236 67.9997 98.0575 67.97 97.915 67.9098L98.0385 67.2317C98.1329 67.2649 98.227 67.2711 98.3223 67.2516C98.4177 67.2317 98.5057 67.1753 98.5916 67.0828C98.6755 66.9899 98.7547 66.8505 98.8252 66.6681C98.8958 66.4859 98.9593 66.2486 99.0137 65.9567L97.3665 60.9716H98.2007L99.156 64.1917Z" fill="#E84B37"/>
<path d="M104.678 65.7063C104.508 65.8339 104.316 65.9268 104.098 65.9858C103.881 66.0457 103.656 66.0772 103.417 66.0772C103.092 66.0772 102.817 66.0143 102.593 65.8912C102.369 65.7692 102.189 65.5918 102.048 65.3625C101.91 65.1341 101.808 64.8585 101.743 64.5346C101.68 64.213 101.648 63.8568 101.648 63.4646C101.648 62.6135 101.801 61.9651 102.11 61.5195C102.418 61.0754 102.86 60.8524 103.437 60.8524C103.701 60.8524 103.929 60.8752 104.119 60.9221C104.308 60.9678 104.471 61.028 104.608 61.1006L104.404 61.7286C104.132 61.5762 103.837 61.4999 103.519 61.4999C103.152 61.4999 102.876 61.6574 102.69 61.9734C102.503 62.2896 102.412 62.7865 102.412 63.4646C102.412 63.7369 102.43 63.9929 102.471 64.232C102.512 64.4714 102.579 64.6785 102.674 64.855C102.77 65.03 102.891 65.1715 103.042 65.2729C103.189 65.3768 103.376 65.4281 103.6 65.4281C103.775 65.4281 103.941 65.3978 104.094 65.3388C104.245 65.2795 104.37 65.2095 104.465 65.1291L104.678 65.7063Z" fill="#E84B37"/>
<path d="M107.688 61.6192H106.58C106.559 62.1852 106.533 62.7316 106.499 63.2593C106.464 63.7871 106.405 64.2549 106.32 64.6598C106.237 65.0653 106.115 65.3904 105.958 65.6319C105.803 65.8758 105.598 65.9959 105.338 65.9959C105.223 65.9959 105.125 65.9897 105.044 65.9772C104.962 65.9633 104.888 65.9401 104.821 65.9087L104.933 65.2884C105.073 65.3278 105.202 65.3195 105.314 65.2629C105.425 65.2062 105.522 65.0336 105.603 64.7432C105.685 64.4545 105.751 64.0119 105.802 63.4145C105.853 62.8188 105.887 62.0042 105.909 60.9719H108.42V65.957H107.688V61.6192Z" fill="#E84B37"/>
<path d="M111.085 64.1917L111.297 65.159H111.348L111.501 64.1917L112.274 60.9719H113.017L111.807 65.4477C111.711 65.8072 111.616 66.1418 111.522 66.4557C111.427 66.768 111.324 67.038 111.212 67.2673C111.1 67.496 110.975 67.6761 110.835 67.8054C110.696 67.9353 110.532 67.9997 110.342 67.9997C110.152 67.9997 109.987 67.97 109.843 67.9098L109.965 67.2317C110.061 67.2649 110.156 67.2711 110.252 67.2516C110.346 67.2317 110.436 67.1753 110.52 67.0828C110.604 66.9899 110.683 66.8505 110.754 66.6681C110.825 66.4859 110.888 66.2486 110.942 65.9567L109.295 60.9716H110.127L111.085 64.1917Z" fill="#E84B37"/>
<path d="M116.27 61.6192H114.581V65.957H113.851V60.9719H116.27V61.6192Z" fill="#E84B37"/>
<path d="M119.596 63.0855L119.657 62.3282H119.616L119.261 63.165L117.541 65.957H117.064V60.9716H117.796V63.9336L117.736 64.6595H117.775L118.111 63.8434L119.851 60.9716H120.329V65.957H119.596V63.0855Z" fill="#E84B37"/>
<path d="M60.1066 52.1972H58.4181V56.5341H57.6865V51.5487H60.1066V52.1972Z" fill="#E84B37"/>
<path d="M60.5548 54.0413C60.5548 53.1434 60.7119 52.4839 61.0277 52.0627C61.3415 51.6409 61.7915 51.4294 62.3746 51.4294C62.9982 51.4294 63.4575 51.645 63.7532 52.0775C64.0478 52.5106 64.194 53.1636 64.194 54.0413C64.194 54.9452 64.0355 55.6058 63.7171 56.025C63.3985 56.4435 62.9507 56.6539 62.3746 56.6539C61.7507 56.6539 61.2925 56.4382 60.9975 56.0051C60.7013 55.5732 60.5548 54.9179 60.5548 54.0413ZM61.3171 54.0413C61.3171 54.3344 61.3361 54.5999 61.3733 54.8375C61.4106 55.0784 61.4714 55.2849 61.5566 55.4575C61.6393 55.6301 61.7503 55.7642 61.8856 55.8606C62.0209 55.9576 62.1845 56.0051 62.3743 56.0051C62.7262 56.0051 62.9909 55.8503 63.167 55.5412C63.3434 55.232 63.4318 54.7319 63.4318 54.0413C63.4318 53.7551 63.4125 53.4919 63.3749 53.2487C63.338 53.0054 63.2772 52.799 63.1934 52.6254C63.1068 52.4528 62.9976 52.3193 62.8621 52.2208C62.7259 52.1253 62.5639 52.0775 62.3743 52.0775C62.0284 52.0775 61.7654 52.2333 61.5854 52.5448C61.4066 52.8586 61.3171 53.357 61.3171 54.0413Z" fill="#E84B37"/>
<path d="M68.1817 56.2845C68.0114 56.41 67.8189 56.5047 67.6002 56.5631C67.3841 56.623 67.1575 56.6536 66.919 56.6536C66.5947 56.6536 66.3196 56.5907 66.0954 56.4694C65.8712 56.3451 65.6914 56.17 65.5523 55.9398C65.4131 55.7105 65.3123 55.4358 65.2469 55.1125C65.1834 54.7906 65.1516 54.4338 65.1516 54.0413C65.1516 53.1908 65.3051 52.5424 65.614 52.098C65.922 51.6524 66.3642 51.4294 66.9396 51.4294C67.2051 51.4294 67.432 51.4534 67.6211 51.4982C67.812 51.5454 67.9741 51.6053 68.1097 51.6783L67.9073 52.3063C67.6356 52.1532 67.3408 52.0772 67.0213 52.0772C66.6561 52.0772 66.3792 52.2348 66.1932 52.5507C66.0055 52.8666 65.9136 53.3632 65.9136 54.041C65.9136 54.3139 65.9329 54.5688 65.9735 54.8087C66.0143 55.0481 66.0821 55.2555 66.1778 55.4323C66.2736 55.6079 66.3938 55.7476 66.5435 55.85C66.6933 55.9532 66.8785 56.0051 67.1024 56.0051C67.2788 56.0051 67.4449 55.9749 67.5966 55.9146C67.7481 55.8556 67.8728 55.7856 67.9672 55.707L68.1817 56.2845Z" fill="#E84B37"/>
<path d="M70.3361 54.7691L70.5507 55.736H70.6006L70.754 54.7691L71.5269 51.5493H72.2688L71.0594 56.0245C70.964 56.3843 70.869 56.7198 70.7737 57.0322C70.6783 57.3445 70.5761 57.6148 70.4638 57.845C70.3519 58.074 70.2269 58.2532 70.0874 58.3828C69.948 58.5121 69.7848 58.5768 69.5948 58.5768C69.4051 58.5768 69.239 58.5465 69.0962 58.4869L69.219 57.8078C69.3134 57.8428 69.4088 57.8491 69.5035 57.8287C69.5981 57.8079 69.6877 57.7533 69.7719 57.6604C69.8575 57.5666 69.9349 57.4285 70.0066 57.2449C70.0771 57.0635 70.1394 56.8253 70.1952 56.5337L68.5476 51.549H69.3812L70.3361 54.7691Z" fill="#E84B37"/>
<path d="M76.6726 57.8014H76.1645L76.0417 56.5344H73.0306L72.8991 57.8014H72.4016V55.8868H72.8791C72.9196 55.8133 72.975 55.6789 73.0474 55.4813C73.1181 55.2855 73.1868 55.0138 73.2555 54.665C73.3236 54.3161 73.3826 53.8863 73.4335 53.374C73.484 52.8611 73.513 52.2529 73.5203 51.5499H76.0716V55.8868H76.6723L76.6726 57.8014ZM75.3407 55.8865V52.1969H74.1915C74.1763 52.4831 74.1588 52.7955 74.1354 53.1346C74.1112 53.4724 74.0755 53.8103 74.0283 54.1455C73.9808 54.4813 73.9233 54.8023 73.8556 55.1087C73.7872 55.414 73.7097 55.6718 73.6219 55.8862L75.3407 55.8865Z" fill="#E84B37"/>
<path d="M77.5871 51.8483C77.7838 51.7291 78.0238 51.6356 78.3043 51.5686C78.5866 51.5018 78.8819 51.4695 79.1932 51.4695C79.4792 51.4695 79.7074 51.511 79.8813 51.5947C80.0535 51.6775 80.1884 51.7899 80.2868 51.9326C80.3848 52.077 80.4499 52.2387 80.4789 52.4214C80.5107 52.6033 80.5256 52.7958 80.5256 52.9952C80.5256 53.3944 80.518 53.7819 80.4992 54.1616C80.4823 54.5392 80.4738 54.899 80.4738 55.2387C80.4738 55.4908 80.4823 55.7249 80.4992 55.9402C80.518 56.1571 80.5501 56.3609 80.5973 56.5543H80.0235L79.8456 55.9657H79.806C79.7046 56.1384 79.5563 56.2885 79.3612 56.4149C79.1663 56.5409 78.9043 56.6044 78.5736 56.6044C78.2102 56.6044 77.9137 56.4792 77.6809 56.2301C77.448 55.98 77.3324 55.6368 77.3324 55.198C77.3324 54.9118 77.3808 54.673 77.4779 54.4793C77.5768 54.2882 77.7133 54.1322 77.8928 54.0118C78.0707 53.8919 78.2828 53.808 78.5275 53.7569C78.7733 53.7071 79.0463 53.6825 79.3494 53.6825H79.5509C79.619 53.6825 79.6901 53.686 79.7624 53.692C79.7839 53.4867 79.7942 53.3028 79.7942 53.1441C79.7942 52.765 79.7358 52.5004 79.622 52.3461C79.5086 52.1927 79.3001 52.1186 78.9981 52.1186C78.8099 52.1186 78.6041 52.1453 78.3821 52.2013C78.1606 52.2586 77.9763 52.331 77.8289 52.417L77.5871 51.8483ZM79.7736 54.2603C79.7068 54.2541 79.6398 54.2494 79.573 54.2452C79.507 54.2422 79.439 54.2414 79.3715 54.2414C79.2115 54.2414 79.0547 54.2538 78.8986 54.2802C78.7452 54.3072 78.6078 54.3529 78.4876 54.4205C78.3678 54.487 78.2722 54.576 78.2014 54.6896C78.1318 54.8026 78.0964 54.9444 78.0964 55.1182C78.0964 55.3837 78.1615 55.589 78.2921 55.7358C78.4217 55.8821 78.5917 55.9557 78.7993 55.9557C79.081 55.9557 79.2973 55.888 79.4529 55.756C79.6063 55.6228 79.7137 55.4775 79.7736 55.317V54.2603Z" fill="#E84B37"/>
<path d="M81.909 51.5492H82.4288L82.5405 52.087H82.5804C82.831 51.6495 83.224 51.4294 83.7595 51.4294C84.2949 51.4294 84.6961 51.6258 84.9651 52.0179C85.2331 52.4089 85.3664 53.0508 85.3664 53.9414C85.3664 54.3596 85.3215 54.737 85.235 55.0725C85.1461 55.4077 85.0195 55.6945 84.8574 55.9304C84.6952 56.1668 84.4976 56.3451 84.2628 56.4685C84.0301 56.5907 83.7689 56.6527 83.4852 56.6527C83.2894 56.6527 83.132 56.6411 83.0173 56.6183C82.903 56.5954 82.7768 56.5468 82.6418 56.4729V58.5278H81.9087L81.909 51.5492ZM82.6421 55.7458C82.7359 55.8259 82.844 55.8888 82.9626 55.9351C83.0806 55.9823 83.2386 56.0051 83.4346 56.0051C83.7941 56.0051 84.0785 55.8259 84.2888 55.4676C84.4985 55.1086 84.6038 54.5963 84.6038 53.9322C84.6038 53.6536 84.5854 53.4003 84.5481 53.1742C84.5103 52.9479 84.4522 52.7536 84.3712 52.5901C84.2888 52.4285 84.1859 52.3003 84.0606 52.2113C83.9351 52.1214 83.7801 52.0769 83.5974 52.0769C83.1027 52.0769 82.7834 52.3733 82.6424 52.9633L82.6421 55.7458Z" fill="#E84B37"/>
<path d="M89.3437 56.2845C89.1733 56.41 88.9803 56.5047 88.7624 56.5631C88.5464 56.623 88.3204 56.6536 88.0822 56.6536C87.756 56.6536 87.4818 56.5907 87.2577 56.4694C87.0346 56.3451 86.8525 56.17 86.7134 55.9398C86.5748 55.7105 86.4737 55.4358 86.408 55.1125C86.3448 54.7906 86.313 54.4338 86.313 54.0413C86.313 53.1908 86.4661 52.5424 86.7751 52.098C87.084 51.6524 87.5257 51.4294 88.1016 51.4294C88.3663 51.4294 88.5939 51.4534 88.7827 51.4982C88.9734 51.5454 89.1364 51.6053 89.2711 51.6783L89.068 52.3063C88.7966 52.1532 88.5016 52.0772 88.183 52.0772C87.8177 52.0772 87.5406 52.2348 87.3554 52.5507C87.1694 52.8666 87.0753 53.3632 87.0753 54.041C87.0753 54.3139 87.0949 54.5688 87.1364 54.8087C87.1766 55.0481 87.244 55.2555 87.3394 55.4323C87.4347 55.6079 87.5557 55.7476 87.7055 55.85C87.8546 55.9532 88.0405 56.0051 88.265 56.0051C88.4402 56.0051 88.6066 55.9749 88.7588 55.9146C88.9113 55.8556 89.0351 55.7856 89.1292 55.707L89.3437 56.2845Z" fill="#E84B37"/>
<path d="M92.9012 52.1972H91.6513V56.5341H90.9187V52.1972H89.6672V51.5487H92.9012V52.1972Z" fill="#E84B37"/>
<path d="M93.7158 51.5596C93.9047 51.5457 94.1116 51.5287 94.3358 51.5092C94.5598 51.4893 94.8263 51.4792 95.1395 51.4792C95.6887 51.4792 96.0811 51.5801 96.3183 51.7827C96.5568 51.9862 96.6748 52.2938 96.6748 52.7049C96.6748 52.9372 96.6191 53.1638 96.5063 53.3834C96.3952 53.6023 96.2067 53.7678 95.942 53.8811V53.9218C96.2684 53.9948 96.4984 54.1291 96.6343 54.3249C96.7689 54.5207 96.8382 54.7886 96.8382 55.1276C96.8382 55.6456 96.6811 56.0223 96.3695 56.2537C96.0575 56.4869 95.5937 56.6037 94.9761 56.6037C94.7452 56.6037 94.5246 56.5954 94.3158 56.5782C94.1047 56.5619 93.9047 56.5438 93.7158 56.5242V51.5596ZM95.2003 53.6729C95.2953 53.6729 95.387 53.6509 95.4754 53.6079C95.5625 53.5655 95.643 53.5065 95.7135 53.4329C95.7849 53.3593 95.8406 53.276 95.8811 53.1793C95.9217 53.0826 95.942 52.9811 95.942 52.8755C95.942 52.6162 95.8797 52.4267 95.7541 52.3068C95.6288 52.187 95.4136 52.1277 95.1083 52.1277C94.9447 52.1277 94.8175 52.1321 94.7222 52.1384C94.6272 52.1446 94.5358 52.1517 94.4469 52.157V53.6732L95.2003 53.6729ZM94.4469 55.9149C94.5492 55.9295 94.6465 55.9387 94.7371 55.9461C94.83 55.952 94.9431 55.9547 95.0778 55.9547C95.4245 55.9547 95.6766 55.8865 95.8355 55.7458C95.9937 55.6055 96.0754 55.3801 96.0754 55.0683C96.0754 54.8295 96.007 54.6308 95.8723 54.4753C95.7346 54.3184 95.4877 54.2404 95.128 54.2404H94.4469V55.9149Z" fill="#E84B37"/>
<path d="M101.057 56.1945C100.897 56.3404 100.689 56.454 100.438 56.5335C100.187 56.6136 99.9228 56.6546 99.6439 56.6546C99.3264 56.6546 99.0496 56.5911 98.8159 56.4698C98.5824 56.3458 98.3881 56.1704 98.2365 55.9405C98.0831 55.7115 97.9718 55.438 97.9016 55.1185C97.8298 54.7991 97.7938 54.4407 97.7938 54.0408C97.7938 53.191 97.9524 52.5431 98.2719 52.0978C98.5905 51.6526 99.0411 51.4286 99.625 51.4286C99.8138 51.4286 100.003 51.4538 100.189 51.4989C100.375 51.5458 100.543 51.6398 100.692 51.7774C100.842 51.9178 100.961 52.113 101.054 52.3663C101.145 52.6178 101.191 52.948 101.191 53.3538C101.191 53.4668 101.185 53.587 101.176 53.7172C101.165 53.8459 101.152 53.9806 101.14 54.1203H98.5566C98.5566 54.406 98.5805 54.6668 98.6281 54.8975C98.6759 55.1307 98.7497 55.3289 98.852 55.4917C98.9524 55.6546 99.0829 55.7804 99.2441 55.8699C99.4024 55.9583 99.6012 56.0043 99.8372 56.0043C100.021 56.0043 100.202 55.972 100.382 55.9052C100.562 55.8391 100.698 55.7587 100.792 55.6659L101.057 56.1945ZM100.489 53.5229C100.501 53.0245 100.431 52.6579 100.276 52.4274C100.119 52.1933 99.9047 52.0785 99.6345 52.0785C99.3216 52.0785 99.0752 52.1933 98.8928 52.4274C98.7092 52.6579 98.6017 53.0248 98.5663 53.5229H100.489Z" fill="#E84B37"/>
<path d="M104.911 54.3111H103.154V56.5332H102.42V51.5493H103.154V53.6629H104.911V51.5493H105.644V56.5332H104.911V54.3111Z" fill="#E84B37"/>
<path d="M109.529 54.3111H107.769V56.5332H107.036V51.5493H107.769V53.6629H109.529V51.5493H110.261V56.5332H109.529V54.3111Z" fill="#E84B37"/>
<path d="M112.385 53.4529C112.521 53.4265 112.65 53.409 112.771 53.3977C112.895 53.3882 113.01 53.3829 113.118 53.3829C113.396 53.3829 113.63 53.4211 113.819 53.498C114.01 53.5742 114.162 53.6795 114.273 53.8118C114.384 53.945 114.463 54.1025 114.511 54.285C114.559 54.4689 114.581 54.6635 114.581 54.8691C114.581 55.4742 114.446 55.913 114.171 56.1847C113.897 56.4567 113.441 56.5932 112.802 56.5932C112.41 56.5932 112.026 56.5736 111.653 56.5335V51.5496H112.385V53.4529ZM112.385 55.8865C112.588 55.9254 112.775 55.9453 112.946 55.9453C113.271 55.9453 113.497 55.8599 113.628 55.6911C113.754 55.5217 113.82 55.2772 113.82 54.9586C113.82 54.659 113.756 54.4244 113.632 54.2565C113.507 54.0856 113.285 54.0017 112.966 54.0017C112.877 54.0017 112.783 54.007 112.681 54.0177C112.58 54.0254 112.481 54.0459 112.385 54.0717V55.8865ZM115.192 51.5493H115.925V56.5332H115.192V51.5493Z" fill="#E84B37"/>
<path d="M120.367 56.1945C120.208 56.3404 120 56.454 119.748 56.5335C119.498 56.6136 119.233 56.6546 118.954 56.6546C118.636 56.6546 118.36 56.5911 118.127 56.4698C117.893 56.3458 117.699 56.1704 117.547 55.9405C117.395 55.7115 117.282 55.438 117.21 55.1185C117.14 54.7991 117.104 54.4407 117.104 54.0408C117.104 53.191 117.263 52.5431 117.583 52.0978C117.902 51.6526 118.352 51.4286 118.935 51.4286C119.126 51.4286 119.312 51.4538 119.498 51.4989C119.687 51.5458 119.854 51.6398 120.003 51.7774C120.152 51.9178 120.272 52.113 120.364 52.3663C120.456 52.6178 120.501 52.948 120.501 53.3538C120.501 53.4668 120.496 53.587 120.486 53.7172C120.475 53.8459 120.463 53.9806 120.45 54.1203H117.866C117.866 54.406 117.89 54.6668 117.937 54.8975C117.986 55.1307 118.061 55.3289 118.162 55.4917C118.263 55.6546 118.394 55.7804 118.553 55.8699C118.712 55.9583 118.911 56.0043 119.147 56.0043C119.331 56.0043 119.513 55.972 119.692 55.9052C119.871 55.8391 120.009 55.7587 120.105 55.6659L120.367 56.1945ZM119.799 53.5229C119.813 53.0245 119.741 52.6579 119.586 52.4274C119.429 52.1933 119.217 52.0785 118.945 52.0785C118.634 52.0785 118.386 52.1933 118.203 52.4274C118.02 52.6579 117.913 53.0248 117.877 53.5229H119.799Z" fill="#E84B37"/>
</g>
</g>
<defs>
<clipPath id="clip0_1_7">
<rect width="165" height="68" fill="white"/>
</clipPath>
</defs>
</svg>
