<svg width="378" height="79" viewBox="0 0 378 79" fill="none" xmlns="http://www.w3.org/2000/svg">
<path d="M86.0301 20.0398C82.7236 15.7582 76.0632 10.6554 63.1273 10.6554H54.9504L29.1611 47.4038H27.3336C23.5972 47.4038 20.4747 46.8387 18.0597 45.7551L6.37701 52.4238C10.13 56.0881 16.5446 59.6389 27.3377 59.6389H35.5139L61.3025 22.8849H63.1321C69.455 22.8849 74.0378 24.4898 76.3875 27.5291C78.2102 29.885 78.7351 33.2548 77.8241 36.7743C76.016 43.7883 68.6002 47.4602 62.2017 47.4602H51.2655L30.0798 78.327H44.8947L57.6828 59.6953H62.1989C77.5415 59.6953 87.18 49.3999 89.6408 39.831C91.4961 32.625 90.1803 25.4092 86.0301 20.0398Z" fill="#EE030E"/>
<path d="M14.0796 42.7632C12.2583 40.4045 11.7333 37.0354 12.6408 33.5173C13.9726 28.3504 18.4978 22.83 27.2058 22.83H39.1981L54.5331 0.490845H39.7154L32.7801 10.597H27.2037C11.5083 10.597 3.18502 21.2968 0.824883 30.4585C-1.03323 37.6673 0.281197 44.8838 4.43071 50.2539C5.02747 51.0216 5.67713 51.7465 6.37492 52.4232L18.0576 45.7544C16.3814 45.0042 15.0399 44.0062 14.0796 42.7632Z" fill="#0990FE"/>
<mask id="mask0_1_2682" style="mask-type:luminance" maskUnits="userSpaceOnUse" x="0" y="0" width="91" height="79">
<path d="M86.028 20.04C82.7215 15.7584 76.0611 10.6556 63.1259 10.6556H54.949L29.1611 47.404H27.3336C21.0121 47.404 16.4258 45.795 14.0789 42.7633C12.2576 40.4047 11.7326 37.0355 12.6401 33.5174C13.9719 28.3506 18.4964 22.8308 27.2044 22.8308H39.196L54.531 0.491699H39.7147L32.778 10.5978H27.2044C11.509 10.5978 3.18641 21.2976 0.826268 30.4586C-1.03115 37.6661 0.282582 44.8826 4.43279 50.2533C7.74073 54.5349 14.3997 59.6378 27.3329 59.6378H35.509L61.2969 22.8844H63.1245C69.4494 22.8844 74.0308 24.4886 76.3819 27.5279C78.2039 29.8838 78.7289 33.2536 77.8186 36.7732C76.0104 43.7871 68.5926 47.459 62.1961 47.459H51.2627L30.0777 78.3245H44.8933L57.6807 59.6941H62.1968C77.5394 59.6941 87.1772 49.3987 89.6387 39.8298C91.494 32.6245 90.1782 25.4087 86.028 20.04Z" fill="white"/>
</mask>
<g mask="url(#mask0_1_2682)">
<path d="M86.839 11.9957L1.08525 57.2328L-12.0625 22.44L68.737 -11.5712L86.839 11.9957Z" fill="url(#paint0_linear_1_2682)"/>
<path d="M59.4839 21.6041L88.8207 6.97351L98.0134 25.4911L68.6793 40.1238L59.4839 21.6041Z" fill="url(#paint1_linear_1_2682)"/>
<path d="M23.7784 63.7757L95.7276 41.0336L103.09 64.4278L31.1415 87.1713L23.7784 63.7757Z" fill="url(#paint2_linear_1_2682)"/>
<path d="M5.2514 54.4491L61.4948 23.4792L71.2158 41.5744L19.4858 70.1083L5.2514 54.4491Z" fill="url(#paint3_linear_1_2682)"/>
</g>
<path d="M117.792 48.7128C117.312 49.0808 116.704 49.3368 115.968 49.4808C115.232 49.6248 114.448 49.6968 113.616 49.6968C112.608 49.6968 111.664 49.5288 110.784 49.1928C109.904 48.8408 109.136 48.3128 108.48 47.6088C107.824 46.9048 107.304 46.0088 106.92 44.9208C106.536 43.8168 106.344 42.5128 106.344 41.0088C106.344 39.4408 106.552 38.1128 106.968 37.0248C107.4 35.9208 107.96 35.0248 108.648 34.3368C109.352 33.6328 110.136 33.1208 111 32.8008C111.864 32.4808 112.744 32.3208 113.64 32.3208C114.6 32.3208 115.384 32.3768 115.992 32.4888C116.6 32.5848 117.12 32.7208 117.552 32.8968L117.072 34.6488C116.304 34.2808 115.208 34.0968 113.784 34.0968C113.128 34.0968 112.48 34.2168 111.84 34.4568C111.2 34.6968 110.624 35.0888 110.112 35.6328C109.616 36.1768 109.216 36.8888 108.912 37.7688C108.608 38.6488 108.456 39.7288 108.456 41.0088C108.456 42.1608 108.6 43.1688 108.888 44.0328C109.176 44.8968 109.568 45.6168 110.064 46.1928C110.576 46.7688 111.168 47.2008 111.84 47.4888C112.528 47.7768 113.272 47.9208 114.072 47.9208C114.792 47.9208 115.416 47.8488 115.944 47.7048C116.488 47.5608 116.944 47.3768 117.312 47.1528L117.792 48.7128ZM119.043 43.4088C119.043 41.3768 119.491 39.8248 120.387 38.7528C121.299 37.6648 122.603 37.1208 124.299 37.1208C125.195 37.1208 125.971 37.2728 126.627 37.5768C127.299 37.8648 127.851 38.2888 128.283 38.8488C128.715 39.3928 129.035 40.0568 129.243 40.8408C129.451 41.6088 129.555 42.4648 129.555 43.4088C129.555 45.4408 129.099 47.0008 128.187 48.0888C127.291 49.1608 125.995 49.6968 124.299 49.6968C123.403 49.6968 122.619 49.5528 121.947 49.2648C121.291 48.9608 120.747 48.5368 120.315 47.9928C119.883 47.4328 119.563 46.7688 119.355 46.0008C119.147 45.2168 119.043 44.3528 119.043 43.4088ZM121.035 43.4088C121.035 44.0168 121.091 44.6008 121.203 45.1608C121.331 45.7208 121.523 46.2088 121.779 46.6248C122.035 47.0408 122.371 47.3768 122.787 47.6328C123.203 47.8888 123.707 48.0168 124.299 48.0168C126.475 48.0328 127.563 46.4968 127.563 43.4088C127.563 42.7848 127.499 42.1928 127.371 41.6328C127.259 41.0728 127.075 40.5848 126.819 40.1688C126.563 39.7528 126.227 39.4248 125.811 39.1848C125.395 38.9288 124.891 38.8008 124.299 38.8008C122.123 38.7848 121.035 40.3208 121.035 43.4088ZM143.358 52.4568H142.062L141.702 49.4088H132.582V37.4088H134.502V47.7288H139.71V37.4088H141.63V47.7288H143.358V52.4568ZM153.219 42.3048L153.291 40.8168H153.219L152.235 42.3528L146.835 49.4088H145.731V37.4088H147.651V44.7288L147.579 46.1448H147.675L148.611 44.6568L154.011 37.4088H155.139V49.4088H153.219V42.3048ZM158.64 38.2968C159.248 37.9288 159.952 37.6568 160.752 37.4808C161.568 37.3048 162.416 37.2168 163.296 37.2168C164.128 37.2168 164.792 37.3288 165.288 37.5528C165.8 37.7768 166.184 38.0728 166.44 38.4408C166.712 38.7928 166.888 39.1848 166.968 39.6168C167.064 40.0488 167.112 40.4808 167.112 40.9128C167.112 41.8728 167.088 42.8088 167.04 43.7208C166.992 44.6328 166.968 45.4968 166.968 46.3128C166.968 46.9048 166.992 47.4648 167.04 47.9928C167.088 48.5208 167.176 49.0088 167.304 49.4568H165.888L165.384 47.7768H165.264C165.12 48.0008 164.936 48.2248 164.712 48.4488C164.504 48.6568 164.248 48.8488 163.944 49.0248C163.64 49.1848 163.288 49.3208 162.888 49.4328C162.488 49.5448 162.032 49.6008 161.52 49.6008C161.008 49.6008 160.528 49.5208 160.08 49.3608C159.648 49.2008 159.272 48.9768 158.952 48.6888C158.632 48.3848 158.376 48.0248 158.184 47.6088C158.008 47.1928 157.92 46.7208 157.92 46.1928C157.92 45.4888 158.064 44.9048 158.352 44.4408C158.64 43.9608 159.04 43.5848 159.552 43.3128C160.08 43.0248 160.704 42.8248 161.424 42.7128C162.16 42.5848 162.968 42.5208 163.848 42.5208C164.072 42.5208 164.288 42.5208 164.496 42.5208C164.72 42.5208 164.944 42.5368 165.168 42.5688C165.216 42.0888 165.24 41.6568 165.24 41.2728C165.24 40.3928 165.064 39.7768 164.712 39.4248C164.36 39.0728 163.72 38.8968 162.792 38.8968C162.52 38.8968 162.224 38.9208 161.904 38.9688C161.6 39.0008 161.28 39.0568 160.944 39.1368C160.624 39.2008 160.312 39.2888 160.008 39.4008C159.72 39.4968 159.464 39.6088 159.24 39.7368L158.64 38.2968ZM162.048 47.9208C162.496 47.9208 162.896 47.8648 163.248 47.7528C163.6 47.6248 163.904 47.4728 164.16 47.2968C164.416 47.1048 164.624 46.8968 164.784 46.6728C164.96 46.4488 165.088 46.2328 165.168 46.0248V44.0328C164.944 44.0168 164.712 44.0088 164.472 44.0088C164.248 43.9928 164.024 43.9848 163.8 43.9848C163.304 43.9848 162.816 44.0168 162.336 44.0808C161.872 44.1288 161.456 44.2328 161.088 44.3928C160.736 44.5368 160.448 44.7448 160.224 45.0168C160.016 45.2728 159.912 45.6008 159.912 46.0008C159.912 46.5608 160.112 47.0248 160.512 47.3928C160.912 47.7448 161.424 47.9208 162.048 47.9208ZM177.195 39.0888H173.715C173.667 39.7608 173.619 40.4888 173.571 41.2728C173.523 42.0408 173.451 42.8168 173.355 43.6008C173.259 44.3688 173.131 45.1128 172.971 45.8328C172.811 46.5368 172.603 47.1608 172.347 47.7048C172.107 48.2488 171.803 48.6888 171.435 49.0248C171.083 49.3448 170.659 49.5048 170.163 49.5048C169.859 49.5048 169.595 49.4888 169.371 49.4568C169.147 49.4248 168.947 49.3688 168.771 49.2888L169.059 47.6808C169.251 47.7448 169.459 47.7768 169.683 47.7768C170.003 47.7768 170.291 47.6408 170.547 47.3688C170.803 47.0968 171.027 46.5848 171.219 45.8328C171.411 45.0648 171.571 44.0088 171.699 42.6648C171.827 41.3208 171.915 39.5688 171.963 37.4088H179.115V49.4088H177.195V39.0888ZM184.729 47.7288C185.321 47.8248 185.889 47.8728 186.433 47.8728C187.441 47.8728 188.185 47.6808 188.665 47.2968C189.145 46.8968 189.385 46.3368 189.385 45.6168C189.385 44.9768 189.153 44.4488 188.689 44.0328C188.225 43.6168 187.497 43.4088 186.505 43.4088C186.233 43.4088 185.937 43.4168 185.617 43.4328C185.297 43.4488 185.001 43.4968 184.729 43.5768V47.7288ZM184.729 41.9928C185.113 41.9288 185.481 41.8888 185.833 41.8728C186.185 41.8408 186.521 41.8248 186.841 41.8248C187.673 41.8248 188.377 41.9208 188.953 42.1128C189.529 42.2888 189.993 42.5368 190.345 42.8568C190.713 43.1768 190.977 43.5608 191.137 44.0088C191.297 44.4408 191.377 44.9048 191.377 45.4008C191.377 46.8568 190.937 47.9128 190.057 48.5688C189.193 49.2248 187.841 49.5528 186.001 49.5528C184.977 49.5528 183.913 49.5048 182.809 49.4088V37.4088H184.729V41.9928ZM201.286 44.1048H195.862V49.4088H193.942V37.4088H195.862V42.4248H201.286V37.4088H203.206V49.4088H201.286V44.1048ZM208.823 47.7288C209.415 47.8248 209.983 47.8728 210.527 47.8728C211.535 47.8728 212.239 47.6808 212.639 47.2968C213.039 46.8968 213.239 46.3368 213.239 45.6168C213.239 44.9768 213.039 44.4488 212.639 44.0328C212.255 43.6168 211.575 43.4088 210.599 43.4088C210.327 43.4088 210.031 43.4168 209.711 43.4328C209.391 43.4488 209.095 43.4968 208.823 43.5768V47.7288ZM208.823 41.9928C209.207 41.9288 209.575 41.8888 209.927 41.8728C210.279 41.8408 210.615 41.8248 210.935 41.8248C211.751 41.8248 212.431 41.9208 212.975 42.1128C213.535 42.2888 213.983 42.5368 214.319 42.8568C214.655 43.1768 214.887 43.5608 215.015 44.0088C215.159 44.4408 215.231 44.9048 215.231 45.4008C215.231 46.8568 214.823 47.9128 214.007 48.5688C213.207 49.2248 211.903 49.5528 210.095 49.5528C209.071 49.5528 208.007 49.5048 206.903 49.4088V37.4088H208.823V41.9928ZM217.127 37.4088H219.047V49.4088H217.127V37.4088ZM230.234 42.3048L230.306 40.8168H230.234L229.25 42.3528L223.85 49.4088H222.746V37.4088H224.666V44.7288L224.594 46.1448H224.69L225.626 44.6568L231.026 37.4088H232.154V49.4088H230.234V42.3048ZM225.506 32.5608C225.666 33.2968 225.938 33.8088 226.322 34.0968C226.722 34.3848 227.178 34.5288 227.69 34.5288C228.202 34.5288 228.658 34.3768 229.058 34.0728C229.458 33.7688 229.73 33.2728 229.874 32.5848L231.314 33.0408C231.17 33.9688 230.754 34.6808 230.066 35.1768C229.394 35.6728 228.586 35.9208 227.642 35.9208C227.21 35.9208 226.778 35.8648 226.346 35.7528C225.93 35.6408 225.554 35.4728 225.218 35.2488C224.882 35.0248 224.594 34.7368 224.354 34.3848C224.114 34.0328 223.954 33.6168 223.874 33.1368L225.506 32.5608ZM247.646 49.5048C247.374 49.6008 247.086 49.6568 246.782 49.6728C246.494 49.6888 246.23 49.6968 245.99 49.6968C244.534 49.6968 243.414 49.1848 242.63 48.1608C241.846 47.1368 241.454 45.5528 241.454 43.4088C241.454 41.3608 241.886 39.8168 242.75 38.7768C243.614 37.7368 244.862 37.2168 246.494 37.2168C246.942 37.2168 247.326 37.2488 247.646 37.3128V32.6088H249.47V37.3368C249.758 37.2888 250.014 37.2568 250.238 37.2408C250.462 37.2248 250.678 37.2168 250.886 37.2168C252.47 37.2168 253.662 37.6808 254.462 38.6088C255.262 39.5208 255.662 41.0408 255.662 43.1688C255.662 44.1768 255.55 45.0888 255.326 45.9048C255.118 46.7048 254.806 47.3848 254.39 47.9448C253.974 48.5048 253.462 48.9368 252.854 49.2408C252.262 49.5448 251.574 49.6968 250.79 49.6968C250.646 49.6968 250.43 49.6808 250.142 49.6488C249.87 49.6328 249.646 49.5928 249.47 49.5288V54.2088H247.646V49.5048ZM250.526 38.8008C250.334 38.8008 250.158 38.8088 249.998 38.8248C249.854 38.8248 249.67 38.8568 249.446 38.9208V48.0408C249.606 48.0728 249.782 48.0968 249.974 48.1128C250.182 48.1128 250.406 48.1128 250.646 48.1128C251.67 48.1128 252.438 47.6888 252.95 46.8408C253.478 45.9928 253.742 44.7688 253.742 43.1688C253.742 41.8088 253.502 40.7448 253.022 39.9768C252.558 39.1928 251.726 38.8008 250.526 38.8008ZM246.47 48.1128C246.662 48.1128 246.854 48.1048 247.046 48.0888C247.238 48.0728 247.446 48.0408 247.67 47.9928V38.8968C247.478 38.8648 247.294 38.8408 247.118 38.8248C246.958 38.8088 246.758 38.8008 246.518 38.8008C245.526 38.8008 244.75 39.1768 244.19 39.9288C243.646 40.6648 243.374 41.8248 243.374 43.4088C243.374 44.0808 243.43 44.7048 243.542 45.2808C243.67 45.8568 243.862 46.3608 244.118 46.7928C244.374 47.2088 244.694 47.5368 245.078 47.7768C245.478 48.0008 245.942 48.1128 246.47 48.1128ZM257.887 43.4088C257.887 41.3768 258.335 39.8248 259.231 38.7528C260.143 37.6648 261.447 37.1208 263.143 37.1208C264.039 37.1208 264.815 37.2728 265.471 37.5768C266.143 37.8648 266.695 38.2888 267.127 38.8488C267.559 39.3928 267.879 40.0568 268.087 40.8408C268.295 41.6088 268.399 42.4648 268.399 43.4088C268.399 45.4408 267.943 47.0008 267.031 48.0888C266.135 49.1608 264.839 49.6968 263.143 49.6968C262.247 49.6968 261.463 49.5528 260.791 49.2648C260.135 48.9608 259.591 48.5368 259.159 47.9928C258.727 47.4328 258.407 46.7688 258.199 46.0008C257.991 45.2168 257.887 44.3528 257.887 43.4088ZM259.879 43.4088C259.879 44.0168 259.935 44.6008 260.047 45.1608C260.175 45.7208 260.367 46.2088 260.623 46.6248C260.879 47.0408 261.215 47.3768 261.631 47.6328C262.047 47.8888 262.551 48.0168 263.143 48.0168C265.319 48.0328 266.407 46.4968 266.407 43.4088C266.407 42.7848 266.343 42.1928 266.215 41.6328C266.103 41.0728 265.919 40.5848 265.663 40.1688C265.407 39.7528 265.071 39.4248 264.655 39.1848C264.239 38.9288 263.735 38.8008 263.143 38.8008C260.967 38.7848 259.879 40.3208 259.879 43.4088ZM278.77 44.1048H273.346V49.4088H271.426V37.4088H273.346V42.4248H278.77V37.4088H280.69V49.4088H278.77V44.1048ZM294.995 52.4568H293.699L293.339 49.4088H284.315L283.955 52.4568H282.659V47.7288H284.075C284.203 47.5528 284.371 47.2408 284.579 46.7928C284.787 46.3288 284.987 45.6888 285.179 44.8728C285.387 44.0408 285.563 43.0168 285.707 41.8008C285.867 40.5688 285.963 39.1048 285.995 37.4088H293.243V47.7288H294.995V52.4568ZM291.323 47.7288V39.0888H287.723C287.691 39.7608 287.635 40.4968 287.555 41.2968C287.475 42.0808 287.363 42.8728 287.219 43.6728C287.091 44.4568 286.923 45.2008 286.715 45.9048C286.507 46.6088 286.267 47.2168 285.995 47.7288H291.323ZM303.962 32.7768C304.57 32.6328 305.226 32.5368 305.93 32.4888C306.634 32.4408 307.33 32.4168 308.018 32.4168C308.754 32.4168 309.498 32.4888 310.25 32.6328C311.018 32.7768 311.714 33.0408 312.338 33.4248C312.962 33.8088 313.466 34.3368 313.85 35.0088C314.25 35.6808 314.45 36.5368 314.45 37.5768C314.45 38.6008 314.266 39.4648 313.898 40.1688C313.53 40.8728 313.042 41.4488 312.434 41.8968C311.826 42.3288 311.13 42.6408 310.346 42.8328C309.562 43.0248 308.754 43.1208 307.922 43.1208C307.842 43.1208 307.706 43.1208 307.514 43.1208C307.338 43.1208 307.146 43.1208 306.938 43.1208C306.746 43.1048 306.554 43.0888 306.362 43.0728C306.17 43.0568 306.034 43.0408 305.954 43.0248V49.4088H303.962V32.7768ZM308.066 34.1448C307.65 34.1448 307.25 34.1528 306.866 34.1688C306.482 34.1848 306.178 34.2248 305.954 34.2888V41.2488C306.034 41.2808 306.162 41.3048 306.338 41.3208C306.514 41.3208 306.698 41.3288 306.89 41.3448C307.082 41.3448 307.266 41.3448 307.442 41.3448C307.618 41.3448 307.746 41.3448 307.826 41.3448C308.37 41.3448 308.906 41.2968 309.434 41.2008C309.978 41.0888 310.466 40.8968 310.898 40.6248C311.33 40.3528 311.674 39.9688 311.93 39.4728C312.202 38.9768 312.338 38.3448 312.338 37.5768C312.338 36.9208 312.21 36.3768 311.954 35.9448C311.714 35.4968 311.386 35.1448 310.97 34.8888C310.57 34.6168 310.114 34.4248 309.602 34.3128C309.09 34.2008 308.578 34.1448 308.066 34.1448ZM315.637 43.4088C315.637 41.3768 316.085 39.8248 316.981 38.7528C317.893 37.6648 319.197 37.1208 320.893 37.1208C321.789 37.1208 322.565 37.2728 323.221 37.5768C323.893 37.8648 324.445 38.2888 324.877 38.8488C325.309 39.3928 325.629 40.0568 325.837 40.8408C326.045 41.6088 326.149 42.4648 326.149 43.4088C326.149 45.4408 325.693 47.0008 324.781 48.0888C323.885 49.1608 322.589 49.6968 320.893 49.6968C319.997 49.6968 319.213 49.5528 318.541 49.2648C317.885 48.9608 317.341 48.5368 316.909 47.9928C316.477 47.4328 316.157 46.7688 315.949 46.0008C315.741 45.2168 315.637 44.3528 315.637 43.4088ZM317.629 43.4088C317.629 44.0168 317.685 44.6008 317.797 45.1608C317.925 45.7208 318.117 46.2088 318.373 46.6248C318.629 47.0408 318.965 47.3768 319.381 47.6328C319.797 47.8888 320.301 48.0168 320.893 48.0168C323.069 48.0328 324.157 46.4968 324.157 43.4088C324.157 42.7848 324.093 42.1928 323.965 41.6328C323.853 41.0728 323.669 40.5848 323.413 40.1688C323.157 39.7528 322.821 39.4248 322.405 39.1848C321.989 38.9288 321.485 38.8008 320.893 38.8008C318.717 38.7848 317.629 40.3208 317.629 43.4088ZM337.36 48.6168C336.88 48.9688 336.312 49.2328 335.656 49.4088C335 49.6008 334.312 49.6968 333.592 49.6968C332.664 49.6968 331.88 49.5528 331.24 49.2648C330.6 48.9608 330.072 48.5368 329.656 47.9928C329.256 47.4328 328.96 46.7688 328.768 46.0008C328.592 45.2168 328.504 44.3528 328.504 43.4088C328.504 41.3768 328.952 39.8248 329.848 38.7528C330.744 37.6648 332.032 37.1208 333.712 37.1208C334.48 37.1208 335.128 37.1848 335.656 37.3128C336.2 37.4248 336.688 37.5928 337.12 37.8168L336.568 39.4728C336.2 39.2648 335.792 39.1048 335.344 38.9928C334.896 38.8648 334.416 38.8008 333.904 38.8008C331.632 38.8008 330.496 40.3368 330.496 43.4088C330.496 44.0168 330.552 44.6008 330.664 45.1608C330.792 45.7048 330.992 46.1928 331.264 46.6248C331.552 47.0408 331.92 47.3768 332.368 47.6328C332.832 47.8888 333.4 48.0168 334.072 48.0168C334.648 48.0168 335.16 47.9288 335.608 47.7528C336.072 47.5768 336.448 47.3768 336.736 47.1528L337.36 48.6168ZM347.626 48.6168C347.146 48.9688 346.578 49.2328 345.922 49.4088C345.266 49.6008 344.578 49.6968 343.858 49.6968C342.93 49.6968 342.146 49.5528 341.506 49.2648C340.866 48.9608 340.338 48.5368 339.922 47.9928C339.522 47.4328 339.226 46.7688 339.034 46.0008C338.858 45.2168 338.77 44.3528 338.77 43.4088C338.77 41.3768 339.218 39.8248 340.114 38.7528C341.01 37.6648 342.298 37.1208 343.978 37.1208C344.746 37.1208 345.394 37.1848 345.922 37.3128C346.466 37.4248 346.954 37.5928 347.386 37.8168L346.834 39.4728C346.466 39.2648 346.058 39.1048 345.61 38.9928C345.162 38.8648 344.682 38.8008 344.17 38.8008C341.898 38.8008 340.762 40.3368 340.762 43.4088C340.762 44.0168 340.818 44.6008 340.93 45.1608C341.058 45.7048 341.258 46.1928 341.53 46.6248C341.818 47.0408 342.186 47.3768 342.634 47.6328C343.098 47.8888 343.666 48.0168 344.338 48.0168C344.914 48.0168 345.426 47.9288 345.874 47.7528C346.338 47.5768 346.714 47.3768 347.002 47.1528L347.626 48.6168ZM357.758 42.3048L357.83 40.8168H357.758L356.774 42.3528L351.374 49.4088H350.27V37.4088H352.19V44.7288L352.118 46.1448H352.214L353.15 44.6568L358.55 37.4088H359.678V49.4088H357.758V42.3048ZM370.859 42.3048L370.931 40.8168H370.859L369.875 42.3528L364.475 49.4088H363.371V37.4088H365.291V44.7288L365.219 46.1448H365.315L366.251 44.6568L371.651 37.4088H372.779V49.4088H370.859V42.3048Z" fill="black"/>
<defs>
<linearGradient id="paint0_linear_1_2682" x1="31.4465" y1="4.7432" x2="44.3156" y2="35.314" gradientUnits="userSpaceOnUse">
<stop offset="0.036" stop-color="#0991FF"/>
<stop offset="0.158" stop-color="#0990FE"/>
<stop offset="0.398" stop-color="#106CEF"/>
<stop offset="0.639" stop-color="#164FE4"/>
<stop offset="0.848" stop-color="#1A3DDD"/>
<stop offset="1" stop-color="#1B37DA"/>
</linearGradient>
<linearGradient id="paint1_linear_1_2682" x1="83.2033" y1="32.5188" x2="74.9697" y2="16.0049" gradientUnits="userSpaceOnUse">
<stop offset="0.01" stop-color="#E60F2F"/>
<stop offset="0.087" stop-color="#E40F37"/>
<stop offset="0.21" stop-color="#DF104E"/>
<stop offset="0.362" stop-color="#D61174"/>
<stop offset="0.474" stop-color="#CE1294"/>
<stop offset="0.533" stop-color="#C41498"/>
<stop offset="0.63" stop-color="#AA19A2"/>
<stop offset="0.756" stop-color="#8022B3"/>
<stop offset="0.902" stop-color="#462EC9"/>
<stop offset="1" stop-color="#1B37DA"/>
</linearGradient>
<linearGradient id="paint2_linear_1_2682" x1="64.1379" y1="70.2495" x2="61.3763" y2="54.2008" gradientUnits="userSpaceOnUse">
<stop offset="0.117" stop-color="#CC0A1E"/>
<stop offset="1" stop-color="#EE030E"/>
</linearGradient>
<linearGradient id="paint3_linear_1_2682" x1="43.1542" y1="59.3058" x2="33.8971" y2="38.1569" gradientUnits="userSpaceOnUse">
<stop offset="0.179" stop-color="#E60F2F"/>
<stop offset="0.228" stop-color="#DC0D3A"/>
<stop offset="0.316" stop-color="#C20958"/>
<stop offset="0.43" stop-color="#980388"/>
<stop offset="0.474" stop-color="#86009C"/>
<stop offset="0.514" stop-color="#7907A4"/>
<stop offset="0.649" stop-color="#501CBB"/>
<stop offset="0.771" stop-color="#332BCC"/>
<stop offset="0.877" stop-color="#2134D6"/>
<stop offset="0.954" stop-color="#1B37DA"/>
</linearGradient>
</defs>
</svg>
